<?xml version="1.0" encoding="UTF-8"?>
<!DOCTYPE svg PUBLIC "-//W3C//DTD SVG 1.1//EN" "http://www.w3.org/Graphics/SVG/1.1/DTD/svg11.dtd">
<!-- Creator: CorelDRAW X6 -->
<svg xmlns="http://www.w3.org/2000/svg" xml:space="preserve" width="297mm" height="210mm" version="1.1" style="shape-rendering:geometricPrecision; text-rendering:geometricPrecision; image-rendering:optimizeQuality; fill-rule:evenodd; clip-rule:evenodd"
viewBox="0 0 29700 21000"
 xmlns:xlink="http://www.w3.org/1999/xlink">
 <defs>
  <style type="text/css">
   <![CDATA[
    .str0 {stroke:black;stroke-width:550.33;stroke-linecap:round;stroke-linejoin:round}
    .fil0 {fill:none}
   ]]>
  </style>
 </defs>
 <g id="Слой_x0020_1">
  <metadata id="CorelCorpID_0Corel-Layer"/>
  <path class="fil0 str0" d="M5202 12384c-1290,1522 -940,4527 -1833,6866 4958,-8810 13949,-8229 13034,-118 1109,-6088 1844,-6706 3632,-8196"/>
  <path class="fil0 str0" d="M26609 5810c-826,1749 -2538,-105 -4345,1332 -923,734 173,2281 1713,2861 484,182 1082,668 1576,459 1342,-568 106,-714 77,-1712 -42,-1454 -979,-1277 -1643,-1998 -1657,-1800 -3515,-2260 -6646,-1827 -3011,416 -6726,4934 -11187,3844"/>
 </g>
</svg>
